<svg width="16" height="16" viewBox="0 0 16 16" fill="none" xmlns="http://www.w3.org/2000/svg">
<path d="M4.20542 0.621094H13.3966C14.4119 0.621094 15.2348 1.44412 15.2348 2.45933V9.81227C15.2348 10.8275 14.4119 11.6505 13.3966 11.6505H4.20542C3.19021 11.6505 2.36719 10.8275 2.36719 9.81227V2.45933C2.36719 1.44412 3.19021 0.621094 4.20542 0.621094Z" fill="#A0B5FF"/>
<path d="M2.36753 4.29785H11.5587C12.574 4.29785 13.3969 5.12088 13.3969 6.13609V13.489C13.3969 14.5043 12.574 15.3273 11.5587 15.3273H2.36753C1.35232 15.3273 0.529297 14.5043 0.529297 13.489V6.13609C0.529297 5.12088 1.35232 4.29785 2.36753 4.29785Z" fill="#2951E0"/>
<path d="M5.60683 12.3174C5.4622 12.3174 5.31639 12.2721 5.19208 12.1782C4.88822 11.9489 4.82778 11.5166 5.0571 11.2127L7.81446 7.55925C8.04373 7.25544 8.47608 7.19496 8.77994 7.42428C9.0838 7.6536 9.14424 8.08586 8.91492 8.38977L6.15756 12.0433C6.09332 12.1285 6.01011 12.1977 5.91453 12.2453C5.81894 12.2929 5.7136 12.3175 5.60683 12.3174Z" fill="#D9E1FF"/>
<path d="M2.68932 10.5016C2.59878 10.5017 2.50911 10.484 2.42547 10.4493C2.34182 10.4147 2.26585 10.3638 2.20191 10.2997C1.9327 10.0305 1.9327 9.59405 2.20191 9.32484L3.37176 8.15503C3.64092 7.88582 4.07741 7.88582 4.34662 8.15503C4.61579 8.4242 4.61579 8.86069 4.34662 9.12989L3.17677 10.2997C3.11283 10.3639 3.03684 10.4147 2.95319 10.4493C2.86954 10.484 2.77986 10.5018 2.68932 10.5016Z" fill="#D9E1FF"/>
<path d="M3.85917 11.6716C3.76863 11.6717 3.67896 11.6539 3.59531 11.6193C3.51166 11.5846 3.43569 11.5338 3.37176 11.4697L2.20191 10.2999C1.9327 10.0307 1.9327 9.59416 2.20191 9.32495C2.47112 9.05574 2.90756 9.05574 3.17677 9.32495L4.34662 10.4948C4.61579 10.764 4.61579 11.2005 4.34662 11.4697C4.28268 11.5338 4.2067 11.5846 4.12304 11.6193C4.03939 11.6539 3.94972 11.6717 3.85917 11.6716Z" fill="#D9E1FF"/>
<path d="M11.283 10.5016C11.1925 10.5017 11.1028 10.484 11.0192 10.4493C10.9355 10.4147 10.8595 10.3638 10.7956 10.2997L9.62577 9.12986C9.35651 8.8607 9.35651 8.42425 9.62577 8.155C9.89493 7.88583 10.3314 7.88583 10.6006 8.155L11.7705 9.32485C12.0397 9.59401 12.0397 10.0305 11.7705 10.2997C11.7065 10.3638 11.6306 10.4147 11.5469 10.4493C11.4633 10.484 11.3736 10.5017 11.283 10.5016Z" fill="#D9E1FF"/>
<path d="M10.1132 11.6716C10.0226 11.6717 9.93297 11.6539 9.84932 11.6192C9.76567 11.5846 9.6897 11.5337 9.62577 11.4696C9.35651 11.2004 9.35651 10.764 9.62577 10.4948L10.7956 9.32495C11.0648 9.05574 11.5013 9.05574 11.7705 9.32495C12.0397 9.59416 12.0397 10.0306 11.7705 10.2998L10.6006 11.4696C10.5367 11.5337 10.4607 11.5846 10.377 11.6192C10.2934 11.6539 10.2037 11.6717 10.1132 11.6716Z" fill="#D9E1FF"/>
</svg>
